<svg xmlns:xlink="http://www.w3.org/1999/xlink" xmlns="http://www.w3.org/2000/svg" width="32" height="32" viewBox="0 0 32 32" fill="none">
<path d="M23 22C18.5817 22 15 18.4183 15 14C15 9.58172 18.5817 6 23 6C27.4183 6 31 9.58172 31 14C31 18.4183 27.4183 22 23 22Z" fill="#FBCFE8"/>
<path d="M10 18.733C10 18.2926 10.2881 17.904 10.7095 17.7761L20.7095 14.7404C21.3518 14.5454 22 15.026 22 15.6973V28C22 28.5523 21.5523 29 21 29H11C10.4477 29 10 28.5523 10 28V18.733Z" stroke="#212121" stroke-width="2"/>
<path d="M13 5.066L19 3.33029L19 15.2037L13 17.0711L13 5.066Z" stroke="#212121" stroke-width="2"/>
<path d="M21.2174 27.5H10.7826C10.3548 27.5 10 27.16 10 26.75C10 26.34 10.3548 26 10.7826 26H21.2174C21.6452 26 22 26.34 22 26.75C22 27.16 21.6452 27.5 21.2174 27.5Z" fill="#212121"/>
</svg>