<svg xmlns:xlink="http://www.w3.org/1999/xlink" xmlns="http://www.w3.org/2000/svg" width="32" height="32" viewBox="0 0 32 32" fill="none">
<path d="M11 20C6.58172 20 3 16.4183 3 12C3 7.58172 6.58172 4 11 4C15.4183 4 19 7.58172 19 12C19 16.4183 15.4183 20 11 20Z" fill="#D6D3D1"/>
<path d="M23.2169 20.5476C25.3258 19.6605 27.4016 18.7907 28.7316 14.4747C28.7845 14.303 28.8216 14.1242 28.8439 13.9453C29.1233 11.703 28.9616 10.4236 28.865 9.92948C28.8334 9.76821 28.7958 9.60892 28.7611 9.44836C28.4542 8.02671 27.7075 6.74088 26.8434 5.59555C25.9306 4.38554 24.7511 3.42785 23.407 2.80545C22.0628 2.18305 20.5947 1.9147 19.1297 2.02367C18.4506 2.07419 17.5232 2.26339 16.7236 2.45362C15.6598 2.70672 14.5113 3.28806 13.6783 4.02869C12.7558 4.84901 12.1215 5.59197 11.6029 6.52381C11.2352 7.25057 10.7426 8.78571 10.7426 10.5952M10.7408 10.5776C10.7408 9.98349 10.6409 9.84762 10.4463 9.29876C10.2518 8.74991 9.96662 8.25121 9.60713 7.83113C9.24765 7.41106 8.82088 7.07784 8.35119 6.85049C7.8815 6.62315 7.37808 6.50614 6.86969 6.50614C6.3613 6.50614 5.85789 6.62315 5.3882 6.85049C4.91851 7.07784 4.49174 7.41106 4.13226 7.83113C3.77277 8.25121 3.48761 8.74991 3.29306 9.29876C3.09851 9.84762 3 13.6025 3 14.1966M9.88235 21C9.88235 21 5.58088 20.9823 3.86029 17.3633C3.52373 16.6554 3 15.5538 3 13.7442" stroke="#212121" stroke-width="2"/>
<path d="M7.82931 16.4893C8.50946 16.4893 7.22075 16.5417 7.82783 16.4893M7.82783 16.4893C15.4892 15.8276 19.4089 11.1538 19.4089 8.76953C19.4089 11.3428 20.5669 16.4893 25.1988 16.4893L23.2688 16.9026V24.9988C23.2688 27.7603 21.0302 29.9988 18.2688 29.9988H14.7592C11.9978 29.9988 9.75925 27.7603 9.75925 24.9988V16.8012L7.82783 16.4893Z" stroke="#212121" stroke-width="1.5" stroke-linecap="round" stroke-linejoin="round"/>
</svg>