<svg xmlns:xlink="http://www.w3.org/1999/xlink" xmlns="http://www.w3.org/2000/svg" width="32" height="32" viewBox="0 0 32 32" fill="none">
<path d="M8 27C3.58172 27 0 23.4183 0 19C0 14.5817 3.58172 11 8 11C12.4183 11 16 14.5817 16 19C16 23.4183 12.4183 27 8 27Z" fill="#D9F99D"/>
<path d="M20.8372 30H5.11628C3.95535 30 3 28.9712 3 27.7209V10.7907C3 5.03442 5.81767 2 11.1628 2H20.8372C26.1823 2 29 5.03442 29 10.7907V21.2093C29 26.9656 26.1823 30 20.8372 30ZM11.1628 3.95349C6.83349 3.95349 4.81395 6.12837 4.81395 10.7907V27.7209C4.81395 27.9033 4.94698 28.0465 5.11628 28.0465H20.8372C25.1665 28.0465 27.186 25.8716 27.186 21.2093V10.7907C27.186 6.12837 25.1665 3.95349 20.8372 3.95349H11.1628Z" fill="#212121"/>
<path d="M22.6673 13.667H9.33398C8.78732 13.667 8.33398 13.2137 8.33398 12.667C8.33398 12.1203 8.78732 11.667 9.33398 11.667H22.6673C23.214 11.667 23.6673 12.1203 23.6673 12.667C23.6673 13.2137 23.214 13.667 22.6673 13.667Z" fill="#212121"/>
<path d="M18.6673 20.333H9.33398C8.78732 20.333 8.33398 19.8797 8.33398 19.333C8.33398 18.7863 8.78732 18.333 9.33398 18.333H18.6673C19.214 18.333 19.6673 18.7863 19.6673 19.333C19.6673 19.8797 19.214 20.333 18.6673 20.333Z" fill="#212121"/>
</svg>