<svg xmlns:xlink="http://www.w3.org/1999/xlink" xmlns="http://www.w3.org/2000/svg" width="32" height="32" viewBox="0 0 32 32" fill="none">
<path d="M16 31C11.5817 31 8 27.4183 8 23C8 18.5817 11.5817 15 16 15C20.4183 15 24 18.5817 24 23C24 27.4183 20.4183 31 16 31Z" fill="#BFDBFE"/>
<path d="M16 8C17 5 19.1613 3 23 3C26.8387 3 30 5.76924 30 9.13188V30" stroke="#212121" stroke-width="2" stroke-miterlimit="10" stroke-linecap="round" stroke-linejoin="round"/>
<path d="M4.125 13.9491C6.36676 10.711 10.2275 8.59375 14.462 8.59375C18.6964 8.59375 22.5572 10.711 24.799 13.9491" stroke="#212121" stroke-width="1.5" stroke-miterlimit="10" stroke-linecap="round" stroke-linejoin="round"/>
<path d="M26 13H3V15H26V13Z" stroke="#212121" stroke-width="1.5" stroke-miterlimit="10" stroke-linecap="round" stroke-linejoin="round"/>
<path d="M5.82031 17.002L5.00024 22.0754" stroke="#212121" stroke-width="1.5" stroke-miterlimit="10" stroke-linecap="round" stroke-linejoin="round"/>
<path d="M16.3945 18.7109L15.5745 23.7844" stroke="#212121" stroke-width="1.5" stroke-miterlimit="10" stroke-linecap="round" stroke-linejoin="round"/>
<path d="M9.94531 23.0029L9.00038 28.8488" stroke="#212121" stroke-width="1.5" stroke-miterlimit="10" stroke-linecap="round" stroke-linejoin="round"/>
<path d="M20.0273 24.6318L19.0824 30.4777" stroke="#212121" stroke-width="1.5" stroke-miterlimit="10" stroke-linecap="round" stroke-linejoin="round"/>
</svg>