<svg xmlns:xlink="http://www.w3.org/1999/xlink" xmlns="http://www.w3.org/2000/svg" width="33" height="36" viewBox="0 0 33 36" fill="none">
<path d="M8.47266 20.5C4.05438 20.5 0.472656 16.9183 0.472656 12.5C0.472656 8.08172 4.05438 4.5 8.47266 4.5C12.8909 4.5 16.4727 8.08172 16.4727 12.5C16.4727 16.9183 12.8909 20.5 8.47266 20.5Z" fill="#F5D0FE"/>
<path d="M16.5173 34.4994C23.5059 34.4994 29.1713 28.834 29.1713 21.8454C29.1713 14.8568 23.5059 9.19141 16.5173 9.19141C9.52868 9.19141 3.86328 14.8568 3.86328 21.8454C3.86328 28.834 9.52868 34.4994 16.5173 34.4994Z" stroke="#212121" stroke-width="2" stroke-miterlimit="10" stroke-linecap="round" stroke-linejoin="round"/>
<path d="M4.4707 21.6729H29.1747" stroke="#212121" stroke-width="1.5" stroke-miterlimit="10" stroke-linecap="round" stroke-linejoin="round"/>
<path d="M18.7493 2.49316H14.2832V6.95929H18.7493V2.49316Z" fill="white" stroke="#212121" stroke-width="1.5" stroke-miterlimit="10" stroke-linecap="round" stroke-linejoin="round"/>
<path d="M14.1596 3.48535H12.5469V5.96653H14.1596V3.48535Z" stroke="#212121" stroke-width="1.5" stroke-miterlimit="10" stroke-linecap="round" stroke-linejoin="round"/>
<path d="M26.4419 7.95105C29.251 7.95105 31.5283 6.50694 31.5283 4.72553C31.5283 2.94413 29.251 1.5 26.4419 1.5C23.6327 1.5 21.3555 2.94413 21.3555 4.72553C21.3555 6.50694 23.6327 7.95105 26.4419 7.95105Z" fill="#212121" stroke="#212121" stroke-width="1.5" stroke-miterlimit="10" stroke-linecap="round" stroke-linejoin="round"/>
<path d="M18.75 4.72559H21.3552" stroke="#212121" stroke-width="1.5" stroke-miterlimit="10" stroke-linecap="round" stroke-linejoin="round"/>
<path d="M23.5898 15.0225C24.7064 15.8909 25.6988 17.8758 26.071 19.3645" stroke="#212121" stroke-width="1.5" stroke-miterlimit="10" stroke-linecap="round" stroke-linejoin="round"/>
<path d="M18.502 12.1689C19.4944 12.4171 20.3628 12.7892 20.9831 13.1614" stroke="#212121" stroke-width="1.5" stroke-miterlimit="10" stroke-linecap="round" stroke-linejoin="round"/>
<path d="M16.5173 34.4997C23.5059 34.4997 29.1713 28.8343 29.1713 21.8457H3.86328C3.86328 28.8343 9.52868 34.4997 16.5173 34.4997Z" fill="white" stroke="#212121" stroke-width="2" stroke-miterlimit="10" stroke-linecap="round" stroke-linejoin="round"/>
</svg>