<svg xmlns:xlink="http://www.w3.org/1999/xlink" xmlns="http://www.w3.org/2000/svg" width="32" height="32" viewBox="0 0 32 32" fill="none">
<path d="M19 27C14.5817 27 11 23.4183 11 19C11 14.5817 14.5817 11 19 11C23.4183 11 27 14.5817 27 19C27 23.4183 23.4183 27 19 27Z" fill="#CBD5E1"/>
<path d="M11 17V24.37C11 26.35 9.86363 28 8.5 28C7.13636 28 6 26.35 6 24.37V17.11" stroke="#212121" stroke-width="2" stroke-miterlimit="10" stroke-linecap="round" stroke-linejoin="round"/>
<path d="M20.7792 15.8804L7.37769 16.734C4.39009 16.734 2 14.3439 2 11.3563C2 8.79554 3.87792 6.57618 6.26801 6.06402C6.86553 5.97866 7.46304 5.97866 8.06056 6.06402L20.7792 7.68586V15.8804Z" stroke="#212121" stroke-width="2" stroke-miterlimit="10" stroke-linecap="round" stroke-linejoin="round"/>
<path d="M20.7812 15.9675L24.0251 16.9919V6.74805L20.7812 7.77243V15.9675Z" stroke="#212121" stroke-width="2" stroke-miterlimit="10" stroke-linecap="round" stroke-linejoin="round"/>
<path d="M8.50001 14C9.88072 14 11 12.8807 11 11.5C11 10.1193 9.88072 9 8.50001 9C7.11929 9 6 10.1193 6 11.5C6 12.8807 7.11929 14 8.50001 14Z" stroke="#212121" stroke-width="1.5" stroke-miterlimit="10" stroke-linecap="round" stroke-linejoin="round"/>
<path d="M26.1602 12.041H30.0016" stroke="#212121" stroke-width="1.5" stroke-miterlimit="10" stroke-linecap="round" stroke-linejoin="round"/>
<path d="M26.1602 9.64993L29.404 7.68652" stroke="#212121" stroke-width="1.5" stroke-miterlimit="10" stroke-linecap="round" stroke-linejoin="round"/>
<path d="M29.404 16.3077L26.1602 14.4297" stroke="#212121" stroke-width="1.5" stroke-miterlimit="10" stroke-linecap="round" stroke-linejoin="round"/>
</svg>