<svg xmlns:xlink="http://www.w3.org/1999/xlink" xmlns="http://www.w3.org/2000/svg" width="33" height="32" viewBox="0 0 33 32" fill="none">
<path d="M25 27C20.5817 27 17 23.4183 17 19C17 14.5817 20.5817 11 25 11C29.4183 11 33 14.5817 33 19C33 23.4183 29.4183 27 25 27Z" fill="#FBCFE8"/>
<path d="M16 27.76C15.65 27.76 15.3 27.6783 15.0083 27.515C12.8267 26.325 8.98834 25.065 6.585 24.75L6.24667 24.7033C4.71834 24.5167 3.45834 23.0817 3.45834 21.53V7.43668C3.45834 6.51501 3.82 5.67501 4.485 5.06835C5.15 4.46168 6.01334 4.17001 6.92334 4.25168C9.49 4.45001 13.3633 5.73335 15.5567 7.11001L15.8367 7.27335C15.9183 7.32001 16.0933 7.32001 16.1633 7.28501L16.35 7.16835C18.5433 5.79168 22.4167 4.48501 24.995 4.26335C25.0183 4.26335 25.1117 4.26335 25.135 4.26335C25.9867 4.18168 26.8617 4.48501 27.515 5.09168C28.18 5.69835 28.5417 6.53835 28.5417 7.46001V21.5417C28.5417 23.105 27.2817 24.5283 25.7417 24.715L25.3567 24.7617C22.9533 25.0767 19.1033 26.3483 16.9683 27.5267C16.6883 27.69 16.35 27.76 16 27.76ZM6.64334 5.99001C6.27 5.99001 5.93167 6.11835 5.66334 6.36335C5.37167 6.63168 5.20834 7.01668 5.20834 7.43668V21.53C5.20834 22.2183 5.80334 22.8833 6.46834 22.9767L6.81834 23.0233C9.44334 23.3733 13.4683 24.6917 15.8017 25.9633C15.9067 26.01 16.0583 26.0217 16.1167 25.9983C18.45 24.7033 22.4983 23.3733 25.135 23.0233L25.5317 22.9767C26.1967 22.895 26.7917 22.2183 26.7917 21.53V7.44835C26.7917 7.01668 26.6283 6.64335 26.3367 6.36335C26.0333 6.09501 25.6483 5.96668 25.2167 5.99001C25.1933 5.99001 25.1 5.99001 25.0767 5.99001C22.8483 6.18835 19.255 7.39001 17.295 8.61501L17.1083 8.74335C16.4667 9.14001 15.5567 9.14001 14.9383 8.75501L14.6583 8.59168C12.6633 7.36668 9.07 6.17668 6.78334 5.99001C6.73667 5.99001 6.69 5.99001 6.64334 5.99001Z" fill="black"/>
<path d="M16 26.7803C15.5217 26.7803 15.125 26.3836 15.125 25.9053V8.40527C15.125 7.92694 15.5217 7.53027 16 7.53027C16.4783 7.53027 16.875 7.92694 16.875 8.40527V25.9053C16.875 26.3953 16.4783 26.7803 16 26.7803Z" fill="black"/>
<path d="M11.0417 12.7803H8.41666C7.93833 12.7803 7.54166 12.3836 7.54166 11.9053C7.54166 11.4269 7.93833 11.0303 8.41666 11.0303H11.0417C11.52 11.0303 11.9167 11.4269 11.9167 11.9053C11.9167 12.3836 11.52 12.7803 11.0417 12.7803Z" fill="black"/>
<path d="M11.9167 16.2803H8.41666C7.93833 16.2803 7.54166 15.8836 7.54166 15.4053C7.54166 14.9269 7.93833 14.5303 8.41666 14.5303H11.9167C12.395 14.5303 12.7917 14.9269 12.7917 15.4053C12.7917 15.8836 12.395 16.2803 11.9167 16.2803Z" fill="black"/>
</svg>