<svg xmlns:xlink="http://www.w3.org/1999/xlink" xmlns="http://www.w3.org/2000/svg" width="32" height="32" viewBox="0 0 32 32" fill="none">
<path d="M21 20C16.5817 20 13 16.4183 13 12C13 7.58172 16.5817 4 21 4C25.4183 4 29 7.58172 29 12C29 16.4183 25.4183 20 21 20Z" fill="#99F6E4"/>
<mask id="path-2-inside-1_9394_42670" fill="white">
<rect x="13" y="2" width="6" height="7" rx="1"/>
</mask>
<rect x="13" y="2" width="6" height="7" rx="1" stroke="#212121" stroke-width="3" mask="url(#path-2-inside-1_9394_42670)"/>
<path d="M9.14839 9.36718C9.10761 8.78865 9.56595 8.29688 10.1459 8.29688H21.8541C22.4341 8.29688 22.8924 8.78865 22.8516 9.36718L21.5335 28.0699C21.4966 28.5936 21.061 28.9996 20.536 28.9996H11.464C10.939 28.9996 10.5034 28.5936 10.4665 28.0699L9.14839 9.36718Z" stroke="#212121" stroke-width="2"/>
</svg>