<svg xmlns:xlink="http://www.w3.org/1999/xlink" xmlns="http://www.w3.org/2000/svg" width="32" height="32" viewBox="0 0 32 32" fill="none">
<path d="M23 32C18.5817 32 15 28.4183 15 24C15 19.5817 18.5817 16 23 16C27.4183 16 31 19.5817 31 24C31 28.4183 27.4183 32 23 32Z" fill="#FED7AA"/>
<mask id="path-2-inside-1_9394_42680" fill="white">
<path d="M5 12.5C5 6.70101 9.70101 2 15.5 2C21.299 2 26 6.70101 26 12.5V29C26 29.5523 25.5523 30 25 30H6C5.44772 30 5 29.5523 5 29V12.5Z"/>
</mask>
<path d="M5 12.5C5 6.70101 9.70101 2 15.5 2C21.299 2 26 6.70101 26 12.5V29C26 29.5523 25.5523 30 25 30H6C5.44772 30 5 29.5523 5 29V12.5Z" stroke="#212121" stroke-width="4" mask="url(#path-2-inside-1_9394_42680)"/>
<path d="M8.30078 14.1818C8.849 14.1818 9.36702 14.1596 9.85634 14.1176M22.3008 14.1818C18.5674 14.1818 17.6341 10.0606 17.6341 8C17.6341 9.90931 16.0315 13.5878 9.85634 14.1176M9.85634 14.1176V19.5556C9.85634 22.5624 12.2939 25 15.3008 25V25C18.3077 25 20.7452 22.5624 20.7452 19.5556V14.1818" stroke="#212121" stroke-width="1.5" stroke-linecap="round" stroke-linejoin="round"/>
</svg>