<svg xmlns:xlink="http://www.w3.org/1999/xlink" xmlns="http://www.w3.org/2000/svg" width="32" height="32" viewBox="0 0 32 32" fill="none">
<path d="M11 32C6.58172 32 3 28.4183 3 24C3 19.5817 6.58172 16 11 16C15.4183 16 19 19.5817 19 24C19 28.4183 15.4183 32 11 32Z" fill="#FEF08A"/>
<path d="M7.63115 27.5835C6.96448 27.5835 6.49782 27.3568 6.21782 27.1435C5.68448 26.7568 4.85781 25.7568 5.37781 23.5168L6.13778 20.2368C6.20445 19.9568 6.05779 19.4501 5.85779 19.2368L3.20447 16.5835C1.80447 15.1835 1.92446 13.9702 2.11113 13.3702C2.29779 12.7702 2.91112 11.7168 4.85779 11.3835L8.25782 10.8235C8.51115 10.7835 8.92446 10.4768 9.03113 10.2502L10.9111 6.49015C11.8178 4.67682 13.0178 4.41016 13.6578 4.41016C14.2978 4.41016 15.4978 4.67682 16.4045 6.49015L18.2845 10.2502C18.4045 10.4768 18.8044 10.7835 19.0578 10.8235L22.4578 11.3835C24.4045 11.7035 25.0178 12.7702 25.2045 13.3702C25.3911 13.9702 25.5111 15.1835 24.1111 16.5835L21.4578 19.2368C21.2578 19.4368 21.1112 19.9568 21.1778 20.2368L21.9378 23.5168C22.4578 25.7702 21.6311 26.7568 21.0978 27.1435C20.5644 27.5302 19.3778 28.0235 17.3778 26.8368L14.1911 24.9435C13.9245 24.7835 13.3644 24.7835 13.0978 24.9435L9.91114 26.8368C8.99114 27.3968 8.21781 27.5835 7.63115 27.5835ZM13.6578 6.41016C13.4445 6.41016 13.0578 6.66348 12.6978 7.38348L10.8178 11.1435C10.4178 11.9568 9.47114 12.6502 8.5778 12.7968L5.17782 13.3568C4.41782 13.4902 4.07115 13.7702 4.00448 13.9835C3.93781 14.1968 4.05779 14.6235 4.60445 15.1702L7.25782 17.8235C7.93782 18.5035 8.29781 19.7435 8.08448 20.6768L7.32447 23.9568C7.0978 24.9035 7.24445 25.4102 7.39112 25.5302C7.53778 25.6368 8.07112 25.6235 8.89779 25.1168L12.0978 23.2235C12.9911 22.6902 14.3378 22.6902 15.2178 23.2235L18.4045 25.1168C19.2445 25.6102 19.7778 25.6368 19.9245 25.5302C20.0711 25.4235 20.2178 24.9168 19.9911 23.9568L19.2311 20.6768C19.0178 19.7302 19.3644 18.5035 20.0578 17.8235L22.7111 15.1702C23.2578 14.6235 23.3778 14.1835 23.3111 13.9835C23.2445 13.7835 22.8978 13.4902 22.1378 13.3568L18.7378 12.7968C17.8445 12.6502 16.8978 11.9568 16.4978 11.1435L14.6178 7.38348C14.2578 6.66348 13.8711 6.41016 13.6578 6.41016Z" fill="#212121"/>
<path d="M29 7.16797H21C20.4533 7.16797 20 6.82797 20 6.41797C20 6.00797 20.4533 5.66797 21 5.66797H29C29.5467 5.66797 30 6.00797 30 6.41797C30 6.82797 29.5467 7.16797 29 7.16797Z" fill="#212121"/>
<path d="M29 25.832H25C24.4533 25.832 24 25.492 24 25.082C24 24.672 24.4533 24.332 25 24.332H29C29.5467 24.332 30 24.672 30 25.082C30 25.492 29.5467 25.832 29 25.832Z" fill="#212121"/>
<path d="M29.0013 16.5H27.668C27.1213 16.5 26.668 16.16 26.668 15.75C26.668 15.34 27.1213 15 27.668 15H29.0013C29.548 15 30.0013 15.34 30.0013 15.75C30.0013 16.16 29.548 16.5 29.0013 16.5Z" fill="#212121"/>
</svg>